# xmcd
# 
# Track frame offsets:
#     150
#     22159
#     45438
#     68579
#     90738
# 
# Disc length: 1510
# 
# Revision: 1
# Processed by: cddbd v1.5.2PL0 Copyright (c) Steve Scherf et al.
# Submitted via: fre:ac v1.0.17
# 
DISCID=3705e405
DTITLE=miwa - ヒカリへ
DYEAR=2012
DGENRE=JPop
TTITLE0=ヒカリへ
TTITLE1=Napa
TTITLE2=HiKARiE Remix ~English version~
TTITLE3=ヒカリへ ~instrumental~
TTITLE4=僕が僕であるために
EXTD=
EXTT0=
EXTT1=
EXTT2=
EXTT3=
EXTT4=
PLAYORDER=
